<?xml version="1.0" encoding="UTF-8" standalone="no"?>
<!DOCTYPE svg PUBLIC "-//W3C//DTD SVG 1.1//EN"
 "http://www.w3.org/Graphics/SVG/1.1/DTD/svg11.dtd">
<!-- Generated by graphviz version 5.0.0 (20220707.1540)
 -->
<!-- Title: dependencies Pages: 1 -->
<svg width="922pt" height="174pt"
 viewBox="0.00 0.00 922.00 173.80" xmlns="http://www.w3.org/2000/svg" xmlns:xlink="http://www.w3.org/1999/xlink">
<g id="graph0" class="graph" transform="scale(1 1) rotate(0) translate(4 169.8)">
<title>dependencies</title>
<polygon fill="white" stroke="transparent" points="-4,4 -4,-169.8 918,-169.8 918,4 -4,4"/>
<text text-anchor="middle" x="457" y="-8.2" font-family="sans-serif" font-size="14.00">dependencies</text>
<g id="clust1" class="cluster">
<title>cluster_RoomUserModule</title>
<polygon fill="none" stroke="black" stroke-dasharray="1,5" points="8,-32.8 8,-157.8 906,-157.8 906,-32.8 8,-32.8"/>
</g>
<g id="clust6" class="cluster">
<title>cluster_RoomUserModule_providers</title>
<polygon fill="none" stroke="black" points="16,-40.8 16,-92.8 898,-92.8 898,-40.8 16,-40.8"/>
</g>
<!-- AuthService -->
<g id="node1" class="node">
<title>AuthService</title>
<ellipse fill="#fdb462" stroke="black" cx="831" cy="-66.8" rx="59.11" ry="18"/>
<text text-anchor="middle" x="831" y="-62.6" font-family="Times,serif" font-size="14.00">AuthService</text>
</g>
<!-- RoomUserModule -->
<g id="node7" class="node">
<title>RoomUserModule</title>
<polygon fill="#8dd3c7" stroke="black" points="537.21,-149.8 534.21,-153.8 513.21,-153.8 510.21,-149.8 416.79,-149.8 416.79,-113.8 537.21,-113.8 537.21,-149.8"/>
<text text-anchor="middle" x="477" y="-127.6" font-family="Times,serif" font-size="14.00">RoomUserModule</text>
</g>
<!-- AuthService&#45;&gt;RoomUserModule -->
<g id="edge1" class="edge">
<title>AuthService&#45;&gt;RoomUserModule</title>
<path fill="none" stroke="black" d="M831,-85.08C831,-106.12 831,-137.8 831,-137.8 831,-137.8 547.45,-137.8 547.45,-137.8"/>
<polygon fill="black" stroke="black" points="547.45,-134.3 537.45,-137.8 547.45,-141.3 547.45,-134.3"/>
</g>
<!-- CardService -->
<g id="node2" class="node">
<title>CardService</title>
<ellipse fill="#fdb462" stroke="black" cx="695" cy="-66.8" rx="58.53" ry="18"/>
<text text-anchor="middle" x="695" y="-62.6" font-family="Times,serif" font-size="14.00">CardService</text>
</g>
<!-- CardService&#45;&gt;RoomUserModule -->
<g id="edge2" class="edge">
<title>CardService&#45;&gt;RoomUserModule</title>
<path fill="none" stroke="black" d="M695,-84.82C695,-102.17 695,-125.8 695,-125.8 695,-125.8 547.15,-125.8 547.15,-125.8"/>
<polygon fill="black" stroke="black" points="547.15,-122.3 537.15,-125.8 547.15,-129.3 547.15,-122.3"/>
</g>
<!-- PrismaService -->
<g id="node3" class="node">
<title>PrismaService</title>
<ellipse fill="#fdb462" stroke="black" cx="551" cy="-66.8" rx="66.64" ry="18"/>
<text text-anchor="middle" x="551" y="-62.6" font-family="Times,serif" font-size="14.00">PrismaService</text>
</g>
<!-- PrismaService&#45;&gt;RoomUserModule -->
<g id="edge3" class="edge">
<title>PrismaService&#45;&gt;RoomUserModule</title>
<path fill="none" stroke="black" d="M510.64,-81.23C510.64,-81.23 510.64,-103.69 510.64,-103.69"/>
<polygon fill="black" stroke="black" points="507.14,-103.69 510.64,-113.69 514.14,-103.69 507.14,-103.69"/>
</g>
<!-- RoomService -->
<g id="node4" class="node">
<title>RoomService</title>
<ellipse fill="#fdb462" stroke="black" cx="403" cy="-66.8" rx="63.71" ry="18"/>
<text text-anchor="middle" x="403" y="-62.6" font-family="Times,serif" font-size="14.00">RoomService</text>
</g>
<!-- RoomService&#45;&gt;RoomUserModule -->
<g id="edge4" class="edge">
<title>RoomService&#45;&gt;RoomUserModule</title>
<path fill="none" stroke="black" d="M441.75,-81.23C441.75,-81.23 441.75,-103.69 441.75,-103.69"/>
<polygon fill="black" stroke="black" points="438.25,-103.69 441.75,-113.69 445.25,-103.69 438.25,-103.69"/>
</g>
<!-- RoomUserService -->
<g id="node5" class="node">
<title>RoomUserService</title>
<ellipse fill="#fdb462" stroke="black" cx="240" cy="-66.8" rx="81.67" ry="18"/>
<text text-anchor="middle" x="240" y="-62.6" font-family="Times,serif" font-size="14.00">RoomUserService</text>
</g>
<!-- RoomUserService&#45;&gt;RoomUserModule -->
<g id="edge5" class="edge">
<title>RoomUserService&#45;&gt;RoomUserModule</title>
<path fill="none" stroke="black" d="M240,-84.82C240,-102.17 240,-125.8 240,-125.8 240,-125.8 406.89,-125.8 406.89,-125.8"/>
<polygon fill="black" stroke="black" points="406.89,-129.3 416.89,-125.8 406.89,-122.3 406.89,-129.3"/>
</g>
<!-- UserService -->
<g id="node6" class="node">
<title>UserService</title>
<ellipse fill="#fdb462" stroke="black" cx="82" cy="-66.8" rx="58.46" ry="18"/>
<text text-anchor="middle" x="82" y="-62.6" font-family="Times,serif" font-size="14.00">UserService</text>
</g>
<!-- UserService&#45;&gt;RoomUserModule -->
<g id="edge6" class="edge">
<title>UserService&#45;&gt;RoomUserModule</title>
<path fill="none" stroke="black" d="M82,-85.08C82,-106.12 82,-137.8 82,-137.8 82,-137.8 406.58,-137.8 406.58,-137.8"/>
<polygon fill="black" stroke="black" points="406.58,-141.3 416.58,-137.8 406.58,-134.3 406.58,-141.3"/>
</g>
</g>
</svg>
