<?xml version="1.0" encoding="UTF-8" standalone="no"?>
<!DOCTYPE svg PUBLIC "-//W3C//DTD SVG 1.1//EN"
 "http://www.w3.org/Graphics/SVG/1.1/DTD/svg11.dtd">
<!-- Generated by graphviz version 5.0.0 (20220707.1540)
 -->
<!-- Title: dependencies Pages: 1 -->
<svg width="892pt" height="174pt"
 viewBox="0.00 0.00 892.00 173.80" xmlns="http://www.w3.org/2000/svg" xmlns:xlink="http://www.w3.org/1999/xlink">
<g id="graph0" class="graph" transform="scale(1 1) rotate(0) translate(4 169.8)">
<title>dependencies</title>
<polygon fill="white" stroke="transparent" points="-4,4 -4,-169.8 888,-169.8 888,4 -4,4"/>
<text text-anchor="middle" x="442" y="-8.2" font-family="sans-serif" font-size="14.00">dependencies</text>
<g id="clust1" class="cluster">
<title>cluster_UserModule</title>
<polygon fill="none" stroke="black" stroke-dasharray="1,5" points="8,-32.8 8,-157.8 876,-157.8 876,-32.8 8,-32.8"/>
</g>
<g id="clust3" class="cluster">
<title>cluster_UserModule_imports</title>
<polygon fill="none" stroke="black" points="754,-40.8 754,-92.8 868,-92.8 868,-40.8 754,-40.8"/>
</g>
<g id="clust6" class="cluster">
<title>cluster_UserModule_providers</title>
<polygon fill="none" stroke="black" points="16,-40.8 16,-92.8 746,-92.8 746,-40.8 16,-40.8"/>
</g>
<!-- PrismaModule -->
<g id="node1" class="node">
<title>PrismaModule</title>
<polygon fill="#8dd3c7" stroke="black" points="860.44,-84.8 857.44,-88.8 836.44,-88.8 833.44,-84.8 761.56,-84.8 761.56,-48.8 860.44,-48.8 860.44,-84.8"/>
<text text-anchor="middle" x="811" y="-62.6" font-family="Times,serif" font-size="14.00">PrismaModule</text>
</g>
<!-- UserModule -->
<g id="node2" class="node">
<title>UserModule</title>
<polygon fill="#8dd3c7" stroke="black" points="515.99,-149.8 512.99,-153.8 491.99,-153.8 488.99,-149.8 430.01,-149.8 430.01,-113.8 515.99,-113.8 515.99,-149.8"/>
<text text-anchor="middle" x="473" y="-127.6" font-family="Times,serif" font-size="14.00">UserModule</text>
</g>
<!-- PrismaModule&#45;&gt;UserModule -->
<g id="edge1" class="edge">
<title>PrismaModule&#45;&gt;UserModule</title>
<path fill="none" stroke="black" d="M811,-85.08C811,-106.12 811,-137.8 811,-137.8 811,-137.8 526.15,-137.8 526.15,-137.8"/>
<polygon fill="black" stroke="black" points="526.15,-134.3 516.15,-137.8 526.15,-141.3 526.15,-134.3"/>
</g>
<!-- AuthService -->
<g id="node3" class="node">
<title>AuthService</title>
<ellipse fill="#fdb462" stroke="black" cx="679" cy="-66.8" rx="59.11" ry="18"/>
<text text-anchor="middle" x="679" y="-62.6" font-family="Times,serif" font-size="14.00">AuthService</text>
</g>
<!-- AuthService&#45;&gt;UserModule -->
<g id="edge2" class="edge">
<title>AuthService&#45;&gt;UserModule</title>
<path fill="none" stroke="black" d="M679,-84.82C679,-102.17 679,-125.8 679,-125.8 679,-125.8 526.18,-125.8 526.18,-125.8"/>
<polygon fill="black" stroke="black" points="526.18,-122.3 516.18,-125.8 526.18,-129.3 526.18,-122.3"/>
</g>
<!-- CardService -->
<g id="node4" class="node">
<title>CardService</title>
<ellipse fill="#fdb462" stroke="black" cx="543" cy="-66.8" rx="58.53" ry="18"/>
<text text-anchor="middle" x="543" y="-62.6" font-family="Times,serif" font-size="14.00">CardService</text>
</g>
<!-- CardService&#45;&gt;UserModule -->
<g id="edge3" class="edge">
<title>CardService&#45;&gt;UserModule</title>
<path fill="none" stroke="black" d="M500.11,-79.33C500.11,-79.33 500.11,-103.65 500.11,-103.65"/>
<polygon fill="black" stroke="black" points="496.61,-103.65 500.11,-113.65 503.61,-103.65 496.61,-103.65"/>
</g>
<!-- RoomService -->
<g id="node5" class="node">
<title>RoomService</title>
<ellipse fill="#fdb462" stroke="black" cx="403" cy="-66.8" rx="63.71" ry="18"/>
<text text-anchor="middle" x="403" y="-62.6" font-family="Times,serif" font-size="14.00">RoomService</text>
</g>
<!-- RoomService&#45;&gt;UserModule -->
<g id="edge4" class="edge">
<title>RoomService&#45;&gt;UserModule</title>
<path fill="none" stroke="black" d="M448.3,-79.64C448.3,-79.64 448.3,-103.32 448.3,-103.32"/>
<polygon fill="black" stroke="black" points="444.8,-103.32 448.3,-113.32 451.8,-103.32 444.8,-103.32"/>
</g>
<!-- RoomUserService -->
<g id="node6" class="node">
<title>RoomUserService</title>
<ellipse fill="#fdb462" stroke="black" cx="240" cy="-66.8" rx="81.67" ry="18"/>
<text text-anchor="middle" x="240" y="-62.6" font-family="Times,serif" font-size="14.00">RoomUserService</text>
</g>
<!-- RoomUserService&#45;&gt;UserModule -->
<g id="edge5" class="edge">
<title>RoomUserService&#45;&gt;UserModule</title>
<path fill="none" stroke="black" d="M240,-84.82C240,-102.17 240,-125.8 240,-125.8 240,-125.8 419.99,-125.8 419.99,-125.8"/>
<polygon fill="black" stroke="black" points="419.99,-129.3 429.99,-125.8 419.99,-122.3 419.99,-129.3"/>
</g>
<!-- UserService -->
<g id="node7" class="node">
<title>UserService</title>
<ellipse fill="#fdb462" stroke="black" cx="82" cy="-66.8" rx="58.46" ry="18"/>
<text text-anchor="middle" x="82" y="-62.6" font-family="Times,serif" font-size="14.00">UserService</text>
</g>
<!-- UserService&#45;&gt;UserModule -->
<g id="edge6" class="edge">
<title>UserService&#45;&gt;UserModule</title>
<path fill="none" stroke="black" d="M82,-85.08C82,-106.12 82,-137.8 82,-137.8 82,-137.8 419.66,-137.8 419.66,-137.8"/>
<polygon fill="black" stroke="black" points="419.66,-141.3 429.66,-137.8 419.66,-134.3 419.66,-141.3"/>
</g>
</g>
</svg>
