<?xml version="1.0" encoding="UTF-8" standalone="no"?>
<!DOCTYPE svg PUBLIC "-//W3C//DTD SVG 1.1//EN"
 "http://www.w3.org/Graphics/SVG/1.1/DTD/svg11.dtd">
<!-- Generated by graphviz version 5.0.0 (20220707.1540)
 -->
<!-- Title: dependencies Pages: 1 -->
<svg width="1023pt" height="174pt"
 viewBox="0.00 0.00 1023.00 173.80" xmlns="http://www.w3.org/2000/svg" xmlns:xlink="http://www.w3.org/1999/xlink">
<g id="graph0" class="graph" transform="scale(1 1) rotate(0) translate(4 169.8)">
<title>dependencies</title>
<polygon fill="white" stroke="transparent" points="-4,4 -4,-169.8 1019,-169.8 1019,4 -4,4"/>
<text text-anchor="middle" x="507.5" y="-8.2" font-family="sans-serif" font-size="14.00">dependencies</text>
<g id="clust1" class="cluster">
<title>cluster_AuthModule</title>
<polygon fill="none" stroke="black" stroke-dasharray="1,5" points="8,-32.8 8,-157.8 1007,-157.8 1007,-32.8 8,-32.8"/>
</g>
<g id="clust6" class="cluster">
<title>cluster_AuthModule_providers</title>
<polygon fill="none" stroke="black" points="138,-40.8 138,-92.8 999,-92.8 999,-40.8 138,-40.8"/>
</g>
<g id="clust3" class="cluster">
<title>cluster_AuthModule_imports</title>
<polygon fill="none" stroke="black" points="16,-40.8 16,-92.8 130,-92.8 130,-40.8 16,-40.8"/>
</g>
<!-- PrismaModule -->
<g id="node1" class="node">
<title>PrismaModule</title>
<polygon fill="#8dd3c7" stroke="black" points="122.44,-84.8 119.44,-88.8 98.44,-88.8 95.44,-84.8 23.56,-84.8 23.56,-48.8 122.44,-48.8 122.44,-84.8"/>
<text text-anchor="middle" x="73" y="-62.6" font-family="Times,serif" font-size="14.00">PrismaModule</text>
</g>
<!-- AuthModule -->
<g id="node2" class="node">
<title>AuthModule</title>
<polygon fill="#8dd3c7" stroke="black" points="568.55,-149.8 565.55,-153.8 544.55,-153.8 541.55,-149.8 481.45,-149.8 481.45,-113.8 568.55,-113.8 568.55,-149.8"/>
<text text-anchor="middle" x="525" y="-127.6" font-family="Times,serif" font-size="14.00">AuthModule</text>
</g>
<!-- PrismaModule&#45;&gt;AuthModule -->
<g id="edge1" class="edge">
<title>PrismaModule&#45;&gt;AuthModule</title>
<path fill="none" stroke="black" d="M73,-85.09C73,-107.01 73,-140.8 73,-140.8 73,-140.8 471.25,-140.8 471.25,-140.8"/>
<polygon fill="black" stroke="black" points="471.25,-144.3 481.25,-140.8 471.25,-137.3 471.25,-144.3"/>
</g>
<!-- AuthService -->
<g id="node3" class="node">
<title>AuthService</title>
<ellipse fill="#fdb462" stroke="black" cx="932" cy="-66.8" rx="59.11" ry="18"/>
<text text-anchor="middle" x="932" y="-62.6" font-family="Times,serif" font-size="14.00">AuthService</text>
</g>
<!-- AuthService&#45;&gt;AuthModule -->
<g id="edge2" class="edge">
<title>AuthService&#45;&gt;AuthModule</title>
<path fill="none" stroke="black" d="M932,-85.09C932,-107.01 932,-140.8 932,-140.8 932,-140.8 578.56,-140.8 578.56,-140.8"/>
<polygon fill="black" stroke="black" points="578.56,-137.3 568.56,-140.8 578.56,-144.3 578.56,-137.3"/>
</g>
<!-- CardService -->
<g id="node4" class="node">
<title>CardService</title>
<ellipse fill="#fdb462" stroke="black" cx="796" cy="-66.8" rx="58.53" ry="18"/>
<text text-anchor="middle" x="796" y="-62.6" font-family="Times,serif" font-size="14.00">CardService</text>
</g>
<!-- CardService&#45;&gt;AuthModule -->
<g id="edge3" class="edge">
<title>CardService&#45;&gt;AuthModule</title>
<path fill="none" stroke="black" d="M796,-84.91C796,-104.14 796,-131.8 796,-131.8 796,-131.8 578.84,-131.8 578.84,-131.8"/>
<polygon fill="black" stroke="black" points="578.84,-128.3 568.84,-131.8 578.84,-135.3 578.84,-128.3"/>
</g>
<!-- JwtStrategy -->
<g id="node5" class="node">
<title>JwtStrategy</title>
<ellipse fill="#fdb462" stroke="black" cx="663" cy="-66.8" rx="56.77" ry="18"/>
<text text-anchor="middle" x="663" y="-62.6" font-family="Times,serif" font-size="14.00">JwtStrategy</text>
</g>
<!-- JwtStrategy&#45;&gt;AuthModule -->
<g id="edge4" class="edge">
<title>JwtStrategy&#45;&gt;AuthModule</title>
<path fill="none" stroke="black" d="M663,-84.83C663,-101.2 663,-122.8 663,-122.8 663,-122.8 578.66,-122.8 578.66,-122.8"/>
<polygon fill="black" stroke="black" points="578.66,-119.3 568.66,-122.8 578.66,-126.3 578.66,-119.3"/>
</g>
<!-- RoomService -->
<g id="node6" class="node">
<title>RoomService</title>
<ellipse fill="#fdb462" stroke="black" cx="525" cy="-66.8" rx="63.71" ry="18"/>
<text text-anchor="middle" x="525" y="-62.6" font-family="Times,serif" font-size="14.00">RoomService</text>
</g>
<!-- RoomService&#45;&gt;AuthModule -->
<g id="edge5" class="edge">
<title>RoomService&#45;&gt;AuthModule</title>
<path fill="none" stroke="black" d="M525,-84.91C525,-84.91 525,-103.79 525,-103.79"/>
<polygon fill="black" stroke="black" points="521.5,-103.79 525,-113.79 528.5,-103.79 521.5,-103.79"/>
</g>
<!-- RoomUserService -->
<g id="node7" class="node">
<title>RoomUserService</title>
<ellipse fill="#fdb462" stroke="black" cx="362" cy="-66.8" rx="81.67" ry="18"/>
<text text-anchor="middle" x="362" y="-62.6" font-family="Times,serif" font-size="14.00">RoomUserService</text>
</g>
<!-- RoomUserService&#45;&gt;AuthModule -->
<g id="edge6" class="edge">
<title>RoomUserService&#45;&gt;AuthModule</title>
<path fill="none" stroke="black" d="M362,-84.83C362,-101.2 362,-122.8 362,-122.8 362,-122.8 471.32,-122.8 471.32,-122.8"/>
<polygon fill="black" stroke="black" points="471.32,-126.3 481.32,-122.8 471.32,-119.3 471.32,-126.3"/>
</g>
<!-- UserService -->
<g id="node8" class="node">
<title>UserService</title>
<ellipse fill="#fdb462" stroke="black" cx="204" cy="-66.8" rx="58.46" ry="18"/>
<text text-anchor="middle" x="204" y="-62.6" font-family="Times,serif" font-size="14.00">UserService</text>
</g>
<!-- UserService&#45;&gt;AuthModule -->
<g id="edge7" class="edge">
<title>UserService&#45;&gt;AuthModule</title>
<path fill="none" stroke="black" d="M204,-84.91C204,-104.14 204,-131.8 204,-131.8 204,-131.8 471.37,-131.8 471.37,-131.8"/>
<polygon fill="black" stroke="black" points="471.37,-135.3 481.37,-131.8 471.37,-128.3 471.37,-135.3"/>
</g>
</g>
</svg>
