<?xml version="1.0" encoding="UTF-8" standalone="no"?>
<!DOCTYPE svg PUBLIC "-//W3C//DTD SVG 1.1//EN"
 "http://www.w3.org/Graphics/SVG/1.1/DTD/svg11.dtd">
<!-- Generated by graphviz version 5.0.0 (20220707.1540)
 -->
<!-- Title: dependencies Pages: 1 -->
<svg width="857pt" height="174pt"
 viewBox="0.00 0.00 857.00 173.80" xmlns="http://www.w3.org/2000/svg" xmlns:xlink="http://www.w3.org/1999/xlink">
<g id="graph0" class="graph" transform="scale(1 1) rotate(0) translate(4 169.8)">
<title>dependencies</title>
<polygon fill="white" stroke="transparent" points="-4,4 -4,-169.8 853,-169.8 853,4 -4,4"/>
<text text-anchor="middle" x="424.5" y="-8.2" font-family="sans-serif" font-size="14.00">dependencies</text>
<g id="clust1" class="cluster">
<title>cluster_AppModule</title>
<polygon fill="none" stroke="black" stroke-dasharray="1,5" points="8,-32.8 8,-157.8 841,-157.8 841,-32.8 8,-32.8"/>
</g>
<g id="clust3" class="cluster">
<title>cluster_AppModule_imports</title>
<polygon fill="none" stroke="black" points="154,-40.8 154,-92.8 833,-92.8 833,-40.8 154,-40.8"/>
</g>
<g id="clust6" class="cluster">
<title>cluster_AppModule_providers</title>
<polygon fill="none" stroke="black" points="16,-40.8 16,-92.8 146,-92.8 146,-40.8 16,-40.8"/>
</g>
<!-- AuthModule -->
<g id="node1" class="node">
<title>AuthModule</title>
<polygon fill="#8dd3c7" stroke="black" points="824.55,-84.8 821.55,-88.8 800.55,-88.8 797.55,-84.8 737.45,-84.8 737.45,-48.8 824.55,-48.8 824.55,-84.8"/>
<text text-anchor="middle" x="781" y="-62.6" font-family="Times,serif" font-size="14.00">AuthModule</text>
</g>
<!-- AppModule -->
<g id="node7" class="node">
<title>AppModule</title>
<polygon fill="#8dd3c7" stroke="black" points="492.66,-149.8 489.66,-153.8 468.66,-153.8 465.66,-149.8 409.34,-149.8 409.34,-113.8 492.66,-113.8 492.66,-149.8"/>
<text text-anchor="middle" x="451" y="-127.6" font-family="Times,serif" font-size="14.00">AppModule</text>
</g>
<!-- AuthModule&#45;&gt;AppModule -->
<g id="edge1" class="edge">
<title>AuthModule&#45;&gt;AppModule</title>
<path fill="none" stroke="black" d="M781,-85.09C781,-107.01 781,-140.8 781,-140.8 781,-140.8 502.79,-140.8 502.79,-140.8"/>
<polygon fill="black" stroke="black" points="502.79,-137.3 492.79,-140.8 502.79,-144.3 502.79,-137.3"/>
</g>
<!-- CardModule -->
<g id="node2" class="node">
<title>CardModule</title>
<polygon fill="#8dd3c7" stroke="black" points="719.27,-84.8 716.27,-88.8 695.27,-88.8 692.27,-84.8 632.73,-84.8 632.73,-48.8 719.27,-48.8 719.27,-84.8"/>
<text text-anchor="middle" x="676" y="-62.6" font-family="Times,serif" font-size="14.00">CardModule</text>
</g>
<!-- CardModule&#45;&gt;AppModule -->
<g id="edge2" class="edge">
<title>CardModule&#45;&gt;AppModule</title>
<path fill="none" stroke="black" d="M676,-84.91C676,-104.14 676,-131.8 676,-131.8 676,-131.8 502.79,-131.8 502.79,-131.8"/>
<polygon fill="black" stroke="black" points="502.79,-128.3 492.79,-131.8 502.79,-135.3 502.79,-128.3"/>
</g>
<!-- PrismaModule -->
<g id="node3" class="node">
<title>PrismaModule</title>
<polygon fill="#8dd3c7" stroke="black" points="614.44,-84.8 611.44,-88.8 590.44,-88.8 587.44,-84.8 515.56,-84.8 515.56,-48.8 614.44,-48.8 614.44,-84.8"/>
<text text-anchor="middle" x="565" y="-62.6" font-family="Times,serif" font-size="14.00">PrismaModule</text>
</g>
<!-- PrismaModule&#45;&gt;AppModule -->
<g id="edge3" class="edge">
<title>PrismaModule&#45;&gt;AppModule</title>
<path fill="none" stroke="black" d="M565,-84.83C565,-101.2 565,-122.8 565,-122.8 565,-122.8 502.8,-122.8 502.8,-122.8"/>
<polygon fill="black" stroke="black" points="502.8,-119.3 492.8,-122.8 502.8,-126.3 502.8,-119.3"/>
</g>
<!-- RoomModule -->
<g id="node4" class="node">
<title>RoomModule</title>
<polygon fill="#8dd3c7" stroke="black" points="497.78,-84.8 494.78,-88.8 473.78,-88.8 470.78,-84.8 404.22,-84.8 404.22,-48.8 497.78,-48.8 497.78,-84.8"/>
<text text-anchor="middle" x="451" y="-62.6" font-family="Times,serif" font-size="14.00">RoomModule</text>
</g>
<!-- RoomModule&#45;&gt;AppModule -->
<g id="edge4" class="edge">
<title>RoomModule&#45;&gt;AppModule</title>
<path fill="none" stroke="black" d="M451,-84.91C451,-84.91 451,-103.79 451,-103.79"/>
<polygon fill="black" stroke="black" points="447.5,-103.79 451,-113.79 454.5,-103.79 447.5,-103.79"/>
</g>
<!-- RoomUserModule -->
<g id="node5" class="node">
<title>RoomUserModule</title>
<polygon fill="#8dd3c7" stroke="black" points="386.21,-84.8 383.21,-88.8 362.21,-88.8 359.21,-84.8 265.79,-84.8 265.79,-48.8 386.21,-48.8 386.21,-84.8"/>
<text text-anchor="middle" x="326" y="-62.6" font-family="Times,serif" font-size="14.00">RoomUserModule</text>
</g>
<!-- RoomUserModule&#45;&gt;AppModule -->
<g id="edge5" class="edge">
<title>RoomUserModule&#45;&gt;AppModule</title>
<path fill="none" stroke="black" d="M326,-84.83C326,-101.2 326,-122.8 326,-122.8 326,-122.8 399.03,-122.8 399.03,-122.8"/>
<polygon fill="black" stroke="black" points="399.03,-126.3 409.03,-122.8 399.03,-119.3 399.03,-126.3"/>
</g>
<!-- UserModule -->
<g id="node6" class="node">
<title>UserModule</title>
<polygon fill="#8dd3c7" stroke="black" points="247.99,-84.8 244.99,-88.8 223.99,-88.8 220.99,-84.8 162.01,-84.8 162.01,-48.8 247.99,-48.8 247.99,-84.8"/>
<text text-anchor="middle" x="205" y="-62.6" font-family="Times,serif" font-size="14.00">UserModule</text>
</g>
<!-- UserModule&#45;&gt;AppModule -->
<g id="edge6" class="edge">
<title>UserModule&#45;&gt;AppModule</title>
<path fill="none" stroke="black" d="M205,-84.91C205,-104.14 205,-131.8 205,-131.8 205,-131.8 399.27,-131.8 399.27,-131.8"/>
<polygon fill="black" stroke="black" points="399.27,-135.3 409.27,-131.8 399.27,-128.3 399.27,-135.3"/>
</g>
<!-- AppService -->
<g id="node8" class="node">
<title>AppService</title>
<ellipse fill="#fdb462" stroke="black" cx="81" cy="-66.8" rx="56.75" ry="18"/>
<text text-anchor="middle" x="81" y="-62.6" font-family="Times,serif" font-size="14.00">AppService</text>
</g>
<!-- AppService&#45;&gt;AppModule -->
<g id="edge7" class="edge">
<title>AppService&#45;&gt;AppModule</title>
<path fill="none" stroke="black" d="M81,-85.09C81,-107.01 81,-140.8 81,-140.8 81,-140.8 399.28,-140.8 399.28,-140.8"/>
<polygon fill="black" stroke="black" points="399.28,-144.3 409.28,-140.8 399.28,-137.3 399.28,-144.3"/>
</g>
</g>
</svg>
